<svg width="24" height="24" viewBox="0 0 24 24" fill="none" xmlns="http://www.w3.org/2000/svg">
<path d="M3.2636 8.66351C3.43239 8.49472 3.66131 8.3999 3.9 8.3999H20.1C20.3387 8.3999 20.5676 8.49472 20.7364 8.66351C20.9052 8.83229 21 9.06121 21 9.2999C21 9.5386 20.9052 9.76752 20.7364 9.9363C20.5676 10.1051 20.3387 10.1999 20.1 10.1999H3.9C3.66131 10.1999 3.43239 10.1051 3.2636 9.9363C3.09482 9.76752 3 9.5386 3 9.2999C3 9.06121 3.09482 8.83229 3.2636 8.66351Z" fill="white"/>
<path d="M3.2636 19.4638C3.43239 19.295 3.66131 19.2002 3.9 19.2002H20.1C20.3387 19.2002 20.5676 19.295 20.7364 19.4638C20.9052 19.6326 21 19.8615 21 20.1002C21 20.3389 20.9052 20.5678 20.7364 20.7366C20.5676 20.9054 20.3387 21.0002 20.1 21.0002H3.9C3.66131 21.0002 3.43239 20.9054 3.2636 20.7366C3.09482 20.5678 3 20.3389 3 20.1002C3 19.8615 3.09482 19.6326 3.2636 19.4638Z" fill="white"/>
<path d="M3.2636 14.0634C3.43239 13.8946 3.66131 13.7998 3.9 13.7998H20.1C20.3387 13.7998 20.5676 13.8946 20.7364 14.0634C20.9052 14.2322 21 14.4611 21 14.6998C21 14.9385 20.9052 15.1674 20.7364 15.3362C20.5676 15.505 20.3387 15.5998 20.1 15.5998H3.9C3.66131 15.5998 3.43239 15.505 3.2636 15.3362C3.09482 15.1674 3 14.9385 3 14.6998C3 14.4611 3.09482 14.2322 3.2636 14.0634Z" fill="white"/>
<path d="M3.2636 3.2636C3.43239 3.09482 3.66131 3 3.9 3H20.1C20.3387 3 20.5676 3.09482 20.7364 3.2636C20.9052 3.43239 21 3.66131 21 3.9C21 4.13869 20.9052 4.36761 20.7364 4.5364C20.5676 4.70518 20.3387 4.8 20.1 4.8H3.9C3.66131 4.8 3.43239 4.70518 3.2636 4.5364C3.09482 4.36761 3 4.13869 3 3.9C3 3.66131 3.09482 3.43239 3.2636 3.2636Z" fill="white"/>
</svg>
