<svg width="21" height="20" viewBox="0 0 21 20" fill="none" xmlns="http://www.w3.org/2000/svg">
<path d="M14.063 11.7659L11.2745 9.67449V5.41426C11.2745 4.9859 10.9282 4.63965 10.4999 4.63965C10.0715 4.63965 9.72526 4.9859 9.72526 5.41426V10.0618C9.72526 10.3058 9.83991 10.5359 10.0351 10.6815L13.1335 13.0053C13.2672 13.106 13.4301 13.1604 13.5974 13.1602C13.8337 13.1602 14.0661 13.0541 14.2179 12.8496C14.4751 12.508 14.4054 12.0223 14.063 11.7659Z" fill="#939393"/>
<path d="M10.5 0C4.98566 0 0.5 4.48566 0.5 10C0.5 15.5143 4.98566 20 10.5 20C16.0143 20 20.5 15.5143 20.5 10C20.5 4.48566 16.0143 0 10.5 0ZM10.5 18.4508C5.84082 18.4508 2.04918 14.6592 2.04918 10C2.04918 5.34082 5.84082 1.54918 10.5 1.54918C15.16 1.54918 18.9508 5.34082 18.9508 10C18.9508 14.6592 15.1592 18.4508 10.5 18.4508Z" fill="#939393"/>
</svg>
