<svg width="21" height="20" viewBox="0 0 21 20" fill="none" xmlns="http://www.w3.org/2000/svg">
<path d="M20.0076 8.69902C20.007 8.69859 20.0065 8.69797 20.006 8.6975L11.8476 0.539453C11.4998 0.191484 11.0375 0 10.5457 0C10.0539 0 9.5916 0.191484 9.24371 0.539414L1.08953 8.69336C1.0868 8.69609 1.08391 8.69898 1.08133 8.70176C0.367189 9.41996 0.368439 10.5853 1.08485 11.3017C1.41211 11.6291 1.84422 11.8187 2.30645 11.8386C2.32535 11.8405 2.3443 11.8414 2.36336 11.8414H2.68836V17.8451C2.68836 19.0333 3.65516 20 4.84336 20H8.0352C8.35883 20 8.62113 19.7375 8.62113 19.414V14.707C8.62113 14.1649 9.06227 13.7239 9.60442 13.7239H11.487C12.0292 13.7239 12.4702 14.1649 12.4702 14.707V19.4141C12.4702 19.7375 12.7325 20 13.0561 20H16.2479C17.4363 20 18.4029 19.0334 18.4029 17.8452V11.8414H18.7045C19.1961 11.8414 19.6584 11.6499 20.0065 11.3018C20.7237 10.5844 20.7239 9.41691 20.0075 8.69898L20.0076 8.69902ZM19.1778 10.4733C19.1158 10.5357 19.042 10.5852 18.9608 10.6188C18.8795 10.6525 18.7924 10.6698 18.7045 10.6696H17.817C17.4933 10.6696 17.231 10.9318 17.231 11.2555V17.8452C17.231 18.3871 16.79 18.8281 16.2479 18.8281H13.642V14.707C13.642 13.5188 12.6754 12.552 11.487 12.552H9.60446C8.4161 12.552 7.4493 13.5188 7.4493 14.707V18.8281H4.84344C4.30141 18.8281 3.86028 18.3871 3.86028 17.8452V11.2555C3.86028 10.9318 3.59797 10.6695 3.27434 10.6695H2.40211C2.39297 10.6689 2.38381 10.6685 2.37465 10.6683C2.20008 10.6652 2.03637 10.596 1.91371 10.4731C1.65278 10.2122 1.65278 9.78758 1.91371 9.52648C1.91383 9.52648 1.91383 9.52633 1.91399 9.52617L1.91445 9.5257L10.0725 1.36797C10.1345 1.30559 10.2082 1.25613 10.2895 1.22247C10.3707 1.18881 10.4578 1.17161 10.5457 1.17188C10.7244 1.17188 10.8924 1.24145 11.0189 1.36797L19.1752 9.52406L19.179 9.52773C19.4386 9.78914 19.4381 10.2129 19.1778 10.4733Z" fill="#939393"/>
</svg>
