<svg width="25" height="24" viewBox="0 0 25 24" fill="none" xmlns="http://www.w3.org/2000/svg">
<path d="M22.4167 14.209L19.047 8.59239L22.0711 7.75237C22.3829 7.66576 22.5655 7.34278 22.4789 7.03097C22.3922 6.71917 22.0692 6.53658 21.7575 6.62323L17.9983 7.6674L17.9975 7.66764L13.086 9.0319V2.58547C13.086 2.26186 12.8236 1.99951 12.5 1.99951C12.1764 1.99951 11.9141 2.26186 11.9141 2.58547V9.35742L6.70128 10.8054L6.70046 10.8056L2.92896 11.8532C2.61711 11.9398 2.43461 12.2628 2.52117 12.5746C2.59325 12.8339 2.82876 13.0038 3.08541 13.0038C3.13853 13.0038 3.1914 12.9966 3.24256 12.9823L5.59366 12.3292L2.5834 17.347C2.52877 17.438 2.4999 17.5422 2.49988 17.6484C2.49988 20.0478 4.45202 21.9999 6.85148 21.9999C9.25101 21.9999 11.2031 20.0478 11.2031 17.6484C11.2031 17.5422 11.1742 17.438 11.1196 17.347L7.74987 11.7304L16.8907 9.19132L13.8804 14.209C13.8258 14.3 13.7969 14.4042 13.7969 14.5104C13.7969 16.9099 15.749 18.8619 18.1485 18.8619C19.3109 18.8619 20.4036 18.4093 21.2256 17.5874C22.0475 16.7654 22.5002 15.6727 22.5001 14.5103C22.5002 14.4042 22.4713 14.3 22.4167 14.209ZM6.85148 20.828C5.29842 20.828 4.00243 19.7085 3.72653 18.2343H9.97643C9.70056 19.7085 8.40458 20.828 6.85148 20.828ZM9.58235 17.0624H4.12068L6.85148 12.5107L9.58235 17.0624ZM18.1485 9.37273L20.8794 13.9244H15.4177L18.1485 9.37273ZM18.1486 17.6901C16.5955 17.6901 15.2995 16.5706 15.0236 15.0964H21.2736C20.9976 16.5706 19.7017 17.6901 18.1486 17.6901Z" fill="#939393"/>
</svg>
