<svg width="67" height="66" viewBox="0 0 67 66" fill="none" xmlns="http://www.w3.org/2000/svg">
<path d="M34.1838 12.2936L34.7401 12.5987C35.7385 13.1459 36.4275 14.0983 36.6303 15.2119L37.1229 17.9159C37.1351 17.9828 37.1689 18.0438 37.2192 18.0895C37.2695 18.1352 37.3335 18.163 37.4012 18.1687C37.4689 18.1743 37.5366 18.1575 37.5938 18.1208C37.651 18.0841 37.6945 18.0296 37.7176 17.9657L40.6329 9.89585C40.7569 9.55565 40.8122 9.19423 40.7956 8.8325C40.779 8.47078 40.6908 8.11595 40.536 7.78856C40.3831 7.46038 40.1666 7.16579 39.8991 6.92184C39.6316 6.67789 39.3183 6.48943 38.9774 6.36735C38.2978 6.12174 37.5246 6.15744 36.87 6.46447C36.5419 6.61734 36.2474 6.83379 36.0035 7.10129C35.7596 7.36878 35.5712 7.682 35.4492 8.02282L34.0417 11.9178C34.0167 11.9871 34.0172 12.063 34.0433 12.1319C34.0693 12.2009 34.1192 12.2582 34.1838 12.2936ZM39.3999 16.5151C39.4199 16.5532 39.4477 16.5866 39.4814 16.6133C39.5152 16.64 39.5541 16.6592 39.5958 16.6699L40.3843 16.8737C41.3139 17.1136 42.1092 17.6982 42.6237 18.5194L43.432 19.8092C43.4628 19.8582 43.5068 19.8976 43.5588 19.9228C43.6109 19.948 43.6691 19.9581 43.7266 19.952C43.7842 19.9458 43.8388 19.9236 43.8844 19.8879C43.93 19.8522 43.9646 19.8045 43.9844 19.75L48.2404 7.9687C48.3644 7.6285 48.4197 7.26708 48.4031 6.90537C48.3865 6.54366 48.2983 6.18883 48.1437 5.86141C47.8312 5.1951 47.2775 4.69027 46.585 4.43996C45.9053 4.19434 45.1314 4.23017 44.4778 4.53707C44.1496 4.68994 43.855 4.9064 43.6111 5.17391C43.3671 5.44143 43.1787 5.75469 43.0566 6.09554L39.3827 16.2655C39.368 16.306 39.3619 16.3492 39.3649 16.3921C39.3679 16.4351 39.3798 16.477 39.3999 16.5151Z" fill="#C9C9C9"/>
<path d="M42.081 21.3646C42.081 19.8449 40.8446 18.6085 39.325 18.6085C37.8052 18.6085 36.5688 19.8449 36.5688 21.3646V32.0396H35.5804V16.7496C35.5804 15.2299 34.3441 13.9936 32.8243 13.9936C31.3048 13.9936 30.0684 15.2299 30.0684 16.7496V32.0395H29.08V12.3527C29.08 10.8331 27.8436 9.59668 26.3238 9.59668C24.8041 9.59668 23.5679 10.8331 23.5679 12.3527V32.0396H22.5795V16.7496C22.5795 15.2299 21.3431 13.9936 19.8233 13.9936C18.3036 13.9936 17.0672 15.2299 17.0672 16.7496V34.1994L13.9033 30.546C13.3375 29.8927 12.6432 29.4701 11.9487 29.3565C11.8218 29.3356 11.6934 29.325 11.5647 29.3248C10.9844 29.3248 10.4424 29.5394 9.95413 29.9627C8.58383 31.1493 8.38454 32.6774 9.34849 34.6412L17.0781 49.4192L16.0566 61.3869C16.0492 61.473 16.0784 61.5583 16.1366 61.622C16.1656 61.6535 16.2008 61.6786 16.24 61.6958C16.2792 61.713 16.3215 61.7219 16.3643 61.7219H42.8348C42.9214 61.7219 43.0042 61.6855 43.0628 61.6216C43.1214 61.5575 43.1504 61.4721 43.1426 61.3858L42.0808 49.4705V21.3646H42.081ZM56.4298 17.3328C55.7501 17.0875 54.9766 17.123 54.3225 17.4301C53.9946 17.5829 53.7002 17.7992 53.4564 18.0665C53.2126 18.3338 53.0242 18.6468 52.9021 18.9873L49.2747 29.0286L48.3452 28.6925L53.5404 14.3121C54.0565 12.883 53.3137 11.3002 51.8846 10.7839C51.585 10.6753 51.2689 10.6198 50.9503 10.6198C49.7941 10.6198 48.7519 11.3501 48.3569 12.4374L43.8913 24.7985C43.8791 24.8321 43.873 24.8677 43.873 24.9036V48.5147C43.873 48.5238 43.8734 48.5328 43.8742 48.542L44.7469 58.3674C44.7538 58.4443 44.7892 58.5158 44.8461 58.5679C44.9031 58.62 44.9775 58.6489 45.0547 58.649C45.1911 58.649 45.3132 58.5588 45.3513 58.4251L48.5387 47.2897L58.0861 20.8611C58.602 19.4323 57.8592 17.8494 56.4298 17.3328Z" fill="#C9C9C9"/>
</svg>
