<svg width="67" height="66" viewBox="0 0 67 66" fill="none" xmlns="http://www.w3.org/2000/svg">
<path d="M33.5 47.2997V38.3655L31.3 36.1655V47.2997H33.5ZM26.9 61.5997H29.1C29.1 61.308 28.9841 61.0282 28.7778 60.8219C28.5716 60.6156 28.2918 60.4997 28 60.4997C27.7083 60.4997 27.4285 60.6156 27.2222 60.8219C27.0159 61.0282 26.9 61.308 26.9 61.5997ZM31.9776 25.9597L33.533 24.4043L42.0877 32.959L40.5312 34.5144L31.9776 25.9597ZM37.4281 37.6274L38.9846 36.072L30.4277 27.5151L28.8723 29.0716C28.6664 29.2778 28.5508 29.5573 28.5508 29.8487C28.5508 30.1402 28.6664 30.4197 28.8723 30.6259L35.8727 37.6274C36.079 37.8336 36.3587 37.9495 36.6504 37.9495C36.9421 37.9495 37.2218 37.8336 37.4281 37.6274Z" fill="#C9C9C9"/>
<path d="M32.4 63.7997C32.6917 63.7997 32.9715 63.6838 33.1778 63.4775C33.3841 63.2712 33.5 62.9914 33.5 62.6997V56.0997H22.5V62.6997C22.5 62.9914 22.6159 63.2712 22.8222 63.4775C23.0285 63.6838 23.3083 63.7997 23.6 63.7997C23.8917 63.7997 24.1715 63.6838 24.3778 63.4775C24.5841 63.2712 24.7 62.9914 24.7 62.6997V61.5997C24.7 60.7245 25.0477 59.8851 25.6665 59.2662C26.2854 58.6474 27.1248 58.2997 28 58.2997C28.8752 58.2997 29.7146 58.6474 30.3335 59.2662C30.9523 59.8851 31.3 60.7245 31.3 61.5997V62.6997C31.3 62.9914 31.4159 63.2712 31.6222 63.4775C31.8285 63.6838 32.1083 63.7997 32.4 63.7997ZM63.9777 9.72919L56.7705 2.52199C56.5734 2.32461 56.3087 2.20947 56.03 2.19987C55.7512 2.19027 55.4792 2.28693 55.269 2.47029L34.49 20.5697C34.3761 20.6687 34.2837 20.7901 34.2188 20.9263C34.1538 21.0626 34.1175 21.2107 34.1123 21.3616C34.107 21.5124 34.1328 21.6628 34.1882 21.8032C34.2435 21.9436 34.3272 22.0712 34.4339 22.1779L44.324 32.068C44.4314 32.1734 44.559 32.2561 44.699 32.3113C44.839 32.3664 44.9887 32.3929 45.1391 32.3892C45.2899 32.384 45.4381 32.3478 45.5743 32.2829C45.7106 32.218 45.832 32.1257 45.9311 32.0119L64.0349 11.2219C64.215 11.0116 64.3091 10.741 64.2985 10.4643C64.2879 10.1876 64.1734 9.92512 63.9777 9.72919ZM48.9 23.0997C47.8122 23.0997 46.7488 22.7771 45.8444 22.1728C44.9399 21.5684 44.2349 20.7094 43.8187 19.7044C43.4024 18.6995 43.2935 17.5936 43.5057 16.5267C43.7179 15.4598 44.2417 14.4798 45.0109 13.7106C45.7801 12.9414 46.7601 12.4176 47.827 12.2054C48.8939 11.9931 49.9998 12.1021 51.0048 12.5183C52.0098 12.9346 52.8687 13.6396 53.4731 14.5441C54.0774 15.4485 54.4 16.5119 54.4 17.5997C54.3983 19.0578 53.8182 20.4558 52.7872 21.4868C51.7561 22.5179 50.3582 23.0979 48.9 23.0997Z" fill="#C9C9C9"/>
<path d="M3.80002 63.8H11.5C12.0142 63.1188 12.6788 62.5658 13.4421 62.1842C14.2054 61.8026 15.0466 61.6026 15.9 61.6H20.3V56.1C20.0083 56.1 19.7285 55.9841 19.5222 55.7778C19.3159 55.5715 19.2 55.2917 19.2 55C19.2 54.7082 19.3159 54.4284 19.5222 54.2222C19.7285 54.0159 20.0083 53.9 20.3 53.9H34.6C34.8976 53.9015 35.1923 53.842 35.4661 53.7253C35.7398 53.6086 35.9868 53.437 36.1917 53.2213C36.4006 53.0024 36.5624 52.7431 36.6672 52.4593C36.772 52.1756 36.8176 51.8733 36.8011 51.5713C36.7946 51.4509 36.7781 51.3313 36.7516 51.2138C36.6069 50.7114 36.3002 50.271 35.8793 49.9611C35.4583 49.6511 34.9467 49.489 34.424 49.5H23.215C22.469 49.5068 21.7437 49.2549 21.1624 48.7872C19.9893 47.8239 18.5179 47.2982 17 47.3C14.6757 47.2321 12.3635 47.6585 10.2163 48.5511C8.06909 49.4437 6.13594 50.7821 4.54472 52.4777C4.06586 52.9573 3.55252 53.4801 3.00472 54.0463C2.80622 54.2534 2.69581 54.5294 2.69672 54.8163V62.7C2.69672 62.8447 2.72528 62.988 2.78077 63.1217C2.83626 63.2554 2.91758 63.3768 3.02007 63.479C3.12256 63.5811 3.24422 63.6621 3.37806 63.7172C3.5119 63.7723 3.65529 63.8004 3.80002 63.8Z" fill="#C9C9C9"/>
<path d="M48.9 20.8998C50.7226 20.8998 52.2 19.4223 52.2 17.5998C52.2 15.7773 50.7226 14.2998 48.9 14.2998C47.0775 14.2998 45.6 15.7773 45.6 17.5998C45.6 19.4223 47.0775 20.8998 48.9 20.8998Z" fill="#C9C9C9"/>
<path d="M51.54 43.5344C51.1137 43.1484 50.5596 42.9337 49.9845 42.9317C49.4094 42.9296 48.8539 43.1404 48.4248 43.5234L38.989 51.4192V51.4599C39.0222 52.0603 38.9319 52.6611 38.7238 53.2253C38.5157 53.7895 38.1941 54.305 37.779 54.7401C37.2133 55.3296 36.4926 55.7474 35.7 55.9457V61.5997C36.5096 61.5697 37.2767 61.2298 37.8428 60.6504L51.5686 46.6716C51.9749 46.2487 52.1994 45.6835 52.1941 45.0971C52.1888 44.5107 51.954 43.9498 51.54 43.5344Z" fill="#C9C9C9"/>
</svg>
