<svg width="67" height="66" viewBox="0 0 67 66" fill="none" xmlns="http://www.w3.org/2000/svg">
<path fill-rule="evenodd" clip-rule="evenodd" d="M33.5 5.5C18.3262 5.5 6 17.8262 6 33C6 48.1739 18.3262 60.5 33.5 60.5C48.6738 60.5 61 48.1739 61 33C61 17.8262 48.6739 5.5 33.5 5.5ZM18.8789 28.8941C21.1326 28.8941 22.9849 30.7464 22.9849 33C22.9849 35.2537 21.1326 37.106 18.8789 37.106C16.6252 37.106 14.7729 35.2537 14.7729 33C14.7729 30.7463 16.6253 28.8941 18.8789 28.8941ZM33.5002 28.8941C35.7539 28.8941 37.6062 30.7464 37.6062 33C37.6062 35.2537 35.7539 37.106 33.5002 37.106C31.2466 37.106 29.3943 35.2537 29.3943 33C29.3943 30.7463 31.2466 28.8941 33.5002 28.8941ZM48.1216 28.8943C50.3753 28.8943 52.2275 30.7466 52.2275 33.0002C52.2275 35.2539 50.3752 37.1062 48.1216 37.1062C45.868 37.1062 44.0156 35.2539 44.0156 33.0002C44.0156 30.7465 45.8679 28.8943 48.1216 28.8943Z" fill="#C9C9C9"/>
</svg>
