<svg width="50" height="54" viewBox="0 0 50 54" fill="none" xmlns="http://www.w3.org/2000/svg">
<path d="M21.25 37.3312V32.625H11.875C11.3777 32.625 10.9008 32.4275 10.5492 32.0758C10.1975 31.7242 10 31.2473 10 30.75C10 30.2527 10.1975 29.7758 10.5492 29.4242C10.9008 29.0725 11.3777 28.875 11.875 28.875H21.5875C21.8675 28.0886 22.3189 27.3744 22.9092 26.7842C23.4994 26.1939 24.2136 25.7425 25 25.4625L35.3125 21.7125C36.554 21.2612 37.9147 21.2612 39.1562 21.7125L41.9313 22.725V6.375C41.9313 4.88316 41.3386 3.45242 40.2837 2.39752C39.2288 1.34263 37.7981 0.75 36.3063 0.75H6.25C4.75816 0.75 3.32742 1.34263 2.27252 2.39752C1.21763 3.45242 0.625 4.88316 0.625 6.375V47.625C0.625 49.1168 1.21763 50.5476 2.27252 51.6025C3.32742 52.6574 4.75816 53.25 6.25 53.25H28.975C26.5718 51.3496 24.6288 48.9309 23.2912 46.1745C21.9536 43.418 21.2558 40.3951 21.25 37.3312ZM11.875 10.125H30.625C31.1223 10.125 31.5992 10.3225 31.9508 10.6742C32.3025 11.0258 32.5 11.5027 32.5 12C32.5 12.4973 32.3025 12.9742 31.9508 13.3258C31.5992 13.6775 31.1223 13.875 30.625 13.875H11.875C11.3777 13.875 10.9008 13.6775 10.5492 13.3258C10.1975 12.9742 10 12.4973 10 12C10 11.5027 10.1975 11.0258 10.5492 10.6742C10.9008 10.3225 11.3777 10.125 11.875 10.125ZM11.875 19.5H30.625C31.1223 19.5 31.5992 19.6975 31.9508 20.0492C32.3025 20.4008 32.5 20.8777 32.5 21.375C32.5 21.8723 32.3025 22.3492 31.9508 22.7008C31.5992 23.0525 31.1223 23.25 30.625 23.25H11.875C11.3777 23.25 10.9008 23.0525 10.5492 22.7008C10.1975 22.3492 10 21.8723 10 21.375C10 20.8777 10.1975 20.4008 10.5492 20.0492C10.9008 19.6975 11.3777 19.5 11.875 19.5ZM17.5 43.875H11.875C11.3777 43.875 10.9008 43.6775 10.5492 43.3258C10.1975 42.9742 10 42.4973 10 42C10 41.5027 10.1975 41.0258 10.5492 40.6742C10.9008 40.3225 11.3777 40.125 11.875 40.125H17.5C17.9973 40.125 18.4742 40.3225 18.8258 40.6742C19.1775 41.0258 19.375 41.5027 19.375 42C19.375 42.4973 19.1775 42.9742 18.8258 43.3258C18.4742 43.6775 17.9973 43.875 17.5 43.875ZM48.1375 28.9875L37.825 25.2375C37.413 25.0886 36.962 25.0886 36.55 25.2375L26.2375 28.9875C25.8751 29.1185 25.5619 29.358 25.3405 29.6734C25.119 29.9887 25.0002 30.3647 25 30.75V37.3312C25.0085 40.7301 26.0593 44.0445 28.0107 46.8274C29.962 49.6102 32.72 51.7276 35.9125 52.8937C36.3176 53.0572 36.7507 53.14 37.1875 53.1375C37.6223 53.137 38.0538 53.0609 38.4625 52.9125C41.655 51.7406 44.4121 49.6193 46.363 46.8337C48.3139 44.0482 49.365 40.732 49.375 37.3312V30.75C49.3748 30.3647 49.256 29.9887 49.0345 29.6734C48.8131 29.358 48.4999 29.1185 48.1375 28.9875ZM43.2062 37.7062L37.5812 43.3312C37.4069 43.507 37.1996 43.6465 36.9711 43.7417C36.7426 43.8369 36.4975 43.8859 36.25 43.8859C36.0025 43.8859 35.7574 43.8369 35.5289 43.7417C35.3004 43.6465 35.0931 43.507 34.9188 43.3312L31.1688 39.5812C30.8157 39.2282 30.6173 38.7493 30.6173 38.25C30.6173 37.7507 30.8157 37.2718 31.1688 36.9188C31.5218 36.5657 32.0007 36.3673 32.5 36.3673C32.9993 36.3673 33.4782 36.5657 33.8312 36.9188L36.25 39.3563L40.5438 35.0438C40.8968 34.6907 41.3757 34.4923 41.875 34.4923C42.3743 34.4923 42.8532 34.6907 43.2062 35.0438C43.5593 35.3968 43.7577 35.8757 43.7577 36.375C43.7577 36.8743 43.5593 37.3532 43.2062 37.7062Z" fill="#C9C9C9"/>
</svg>
