<svg width="58" height="58" viewBox="0 0 58 58" fill="none" xmlns="http://www.w3.org/2000/svg">
<path fill-rule="evenodd" clip-rule="evenodd" d="M12.0537 6.50378V4.62503C12.0537 3.63047 11.6587 2.67664 10.9554 1.97338C10.2521 1.27012 9.29831 0.875027 8.30375 0.875027C7.30919 0.875027 6.35536 1.27012 5.6521 1.97338C4.94884 2.67664 4.55375 3.63047 4.55375 4.62503V15.875C4.55375 16.8696 4.94884 17.8234 5.6521 18.5267C6.35536 19.2299 7.30919 19.625 8.30375 19.625H19.5537C20.5483 19.625 21.5021 19.2299 22.2054 18.5267C22.9087 17.8234 23.3037 16.8696 23.3037 15.875C23.3037 14.8805 22.9087 13.9266 22.2054 13.2234C21.5021 12.5201 20.5483 12.125 19.5537 12.125H17.075C20.4294 9.76253 24.5187 8.37503 28.9287 8.37503C40.3119 8.37503 49.5537 17.6169 49.5537 29C49.5537 40.3832 40.3119 49.625 28.9287 49.625C18.08 49.625 9.17562 41.2325 8.36375 30.59C8.27448 29.609 7.80282 28.7026 7.05068 28.0665C6.29855 27.4304 5.32634 27.1158 4.34415 27.1907C3.36196 27.2656 2.44867 27.7239 1.80164 28.4666C1.1546 29.2094 0.825789 30.1769 0.88625 31.16C1.9925 45.6744 14.1331 57.125 28.9287 57.125C44.4519 57.125 57.0537 44.5232 57.0537 29C57.0537 13.4769 44.4519 0.875027 28.9287 0.875027C22.8414 0.866592 16.9171 2.84265 12.0537 6.50378Z" fill="#C9C9C9"/>
</svg>
