<svg width="67" height="66" viewBox="0 0 67 66" fill="none" xmlns="http://www.w3.org/2000/svg">
<path fill-rule="evenodd" clip-rule="evenodd" d="M25.2362 30.7176C23.6137 31.5013 22.4862 33.1651 22.4862 35.0901V50.1601C22.4862 52.8413 24.6587 55.0001 27.3262 55.0001H56.1462C58.8275 55.0001 60.9862 52.8276 60.9862 50.1601V35.0901C60.9862 33.1651 59.8587 31.5013 58.2362 30.7176V26.1251C58.2362 25.3688 57.6175 24.7501 56.8612 24.7501H55.1425C55.555 23.9251 55.8437 23.1551 55.995 22.4538C56.215 21.3813 56.16 20.4326 55.8162 19.5938C55.3487 18.4388 54.3175 17.4351 52.4887 16.7888C52.0762 15.4138 51.5125 14.2588 50.5912 13.4751C49.7937 12.8013 48.735 12.3613 47.2362 12.3613C45.1462 12.3613 43.3175 12.9251 42.2037 13.3788C41.365 12.3476 39.825 10.9863 37.6112 10.9863C35.3975 10.9863 34.215 12.0176 33.4037 13.4751C33.0875 14.0251 32.8262 14.6576 32.5237 15.3176C30.5162 15.9088 29.21 16.9126 28.4812 18.1776C27.56 19.8001 27.5462 22.0001 28.5912 24.7363H26.6112C25.855 24.7363 25.2362 25.3551 25.2362 26.1113V30.7038V30.7176ZM23.6687 19.1126C23.7156 18.9383 23.7274 18.7565 23.7036 18.5777C23.6798 18.3988 23.6208 18.2264 23.5301 18.0705C23.4393 17.9145 23.3186 17.7781 23.1748 17.669C23.0311 17.56 22.8671 17.4805 22.6925 17.4351L19.9837 16.7063C17.0825 15.9226 14.0987 17.6413 13.315 20.5426C11.5412 27.1563 7.97998 40.4801 6.20623 47.0938C5.43623 49.9813 7.15498 52.9651 10.0562 53.7488L12.765 54.4776C13.4937 54.6701 14.25 54.2438 14.4562 53.5013L23.6687 19.1263V19.1126ZM55.4862 35.7363C55.4862 34.9801 54.8675 34.3613 54.1112 34.3613H29.3612C28.605 34.3613 27.9862 34.9801 27.9862 35.7363V49.4863C27.9862 50.2426 28.605 50.8613 29.3612 50.8613H54.1112C54.8675 50.8613 55.4862 50.2426 55.4862 49.4863V35.7363ZM52.7362 37.1113V48.1113H30.7362V37.1113H52.7362ZM48.6112 39.8613C48.6112 39.1051 47.9925 38.4863 47.2362 38.4863H36.2362C35.48 38.4863 34.8612 39.1051 34.8612 39.8613V45.3613C34.8612 46.1176 35.48 46.7363 36.2362 46.7363H47.2362C47.9925 46.7363 48.6112 46.1176 48.6112 45.3613V39.8613ZM45.8612 41.2363V43.9863H37.6112V41.2363H45.8612ZM40.3612 20.6113C41.1175 20.6113 41.7362 21.2301 41.7362 21.9863C41.7362 22.7426 41.1175 23.3613 40.3612 23.3613C39.605 23.3613 38.9862 22.7426 38.9862 21.9863C38.9862 21.2301 39.605 20.6113 40.3612 20.6113ZM48.6112 20.6113C49.3675 20.6113 49.9862 21.2301 49.9862 21.9863C49.9862 22.7426 49.3675 23.3613 48.6112 23.3613C47.855 23.3613 47.2362 22.7426 47.2362 21.9863C47.2362 21.2301 47.855 20.6113 48.6112 20.6113ZM33.4862 19.2363C34.2425 19.2363 34.8612 19.8551 34.8612 20.6113C34.8612 21.3676 34.2425 21.9863 33.4862 21.9863C32.73 21.9863 32.1112 21.3676 32.1112 20.6113C32.1112 19.8551 32.73 19.2363 33.4862 19.2363ZM37.6112 16.4863C38.3675 16.4863 38.9862 17.1051 38.9862 17.8613C38.9862 18.6176 38.3675 19.2363 37.6112 19.2363C36.855 19.2363 36.2362 18.6176 36.2362 17.8613C36.2362 17.1051 36.855 16.4863 37.6112 16.4863ZM45.8612 16.4863C46.6175 16.4863 47.2362 17.1051 47.2362 17.8613C47.2362 18.6176 46.6175 19.2363 45.8612 19.2363C45.105 19.2363 44.4862 18.6176 44.4862 17.8613C44.4862 17.1051 45.105 16.4863 45.8612 16.4863Z" fill="#C9C9C9"/>
</svg>
