<svg width="21" height="22" viewBox="0 0 21 22" fill="none" xmlns="http://www.w3.org/2000/svg">
<path d="M10.4999 14.0005C12.1568 14.0005 13.4999 12.6573 13.4999 11.0005C13.4999 9.34364 12.1568 8.00049 10.4999 8.00049C8.84309 8.00049 7.49994 9.34364 7.49994 11.0005C7.49994 12.6573 8.84309 14.0005 10.4999 14.0005Z" stroke="#939393" stroke-width="1.5"/>
<path d="M12.2654 1.15224C11.8978 1 11.4319 1 10.5 1C9.5681 1 9.1022 1 8.7346 1.15224C8.24457 1.35523 7.85522 1.74458 7.65223 2.23463C7.55957 2.45834 7.5233 2.7185 7.50911 3.09799C7.48826 3.65568 7.20226 4.17189 6.71894 4.45093C6.23564 4.72996 5.64559 4.71954 5.15219 4.45876C4.81645 4.2813 4.57301 4.18262 4.33294 4.15102C3.80704 4.08178 3.27518 4.22429 2.85436 4.5472C2.53874 4.78938 2.30577 5.1929 1.83983 5.99993C1.37389 6.80697 1.14092 7.21048 1.08899 7.60491C1.01976 8.1308 1.16227 8.66267 1.48518 9.08351C1.63256 9.27561 1.8397 9.43701 2.16119 9.63901C2.6338 9.93601 2.93789 10.4419 2.93786 11C2.93783 11.5581 2.63375 12.0639 2.16118 12.3608C1.83965 12.5629 1.63248 12.7244 1.48508 12.9165C1.16217 13.3373 1.01966 13.8691 1.0889 14.395C1.14082 14.7894 1.37379 15.193 1.83973 16C2.30568 16.807 2.53865 17.2106 2.85426 17.4527C3.27508 17.7756 3.80694 17.9181 4.33284 17.8489C4.57289 17.8173 4.81632 17.7186 5.15204 17.5412C5.64547 17.2804 6.23556 17.27 6.7189 17.549C7.20224 17.8281 7.48826 18.3443 7.50911 18.9021C7.52331 19.2815 7.55957 19.5417 7.65223 19.7654C7.85522 20.2554 8.24457 20.6448 8.7346 20.8478C9.1022 21 9.5681 21 10.5 21C11.4319 21 11.8978 21 12.2654 20.8478C12.7554 20.6448 13.1448 20.2554 13.3477 19.7654C13.4404 19.5417 13.4767 19.2815 13.4909 18.902C13.5117 18.3443 13.7977 17.8281 14.281 17.549C14.7643 17.2699 15.3544 17.2804 15.8479 17.5412C16.1836 17.7186 16.427 17.8172 16.667 17.8488C17.1929 17.9181 17.7248 17.7756 18.1456 17.4527C18.4612 17.2105 18.6942 16.807 19.1601 15.9999C19.6261 15.1929 19.8591 14.7894 19.911 14.395C19.9802 13.8691 19.8377 13.3372 19.5148 12.9164C19.3674 12.7243 19.1602 12.5628 18.8387 12.3608C18.3662 12.0639 18.0621 11.558 18.0621 10.9999C18.0621 10.4418 18.3662 9.93611 18.8387 9.63921C19.1603 9.43711 19.3675 9.27571 19.5149 9.08351C19.8378 8.66274 19.9803 8.13088 19.9111 7.60497C19.8592 7.21055 19.6262 6.80703 19.1602 6C18.6943 5.19297 18.4613 4.78945 18.1457 4.54727C17.7249 4.22436 17.193 4.08185 16.6671 4.15109C16.4271 4.18269 16.1837 4.28136 15.8479 4.4588C15.3545 4.71959 14.7644 4.73002 14.2811 4.45096C13.7977 4.17191 13.5117 3.65566 13.4909 3.09794C13.4767 2.71848 13.4404 2.45833 13.3477 2.23463C13.1448 1.74458 12.7554 1.35523 12.2654 1.15224Z" stroke="#939393" stroke-width="1.5"/>
</svg>
