<svg width="60" height="60" viewBox="0 0 60 60" fill="none" xmlns="http://www.w3.org/2000/svg">
<path d="M51.3108 5.06227C50.3156 4.065 48.9921 3.51562 47.584 3.51562H45.2467V5.85938C45.2467 8.44406 43.1462 10.5469 40.5643 10.5469H19.494C16.9121 10.5469 14.8117 8.44406 14.8117 5.85938V3.51562H12.4666C9.56531 3.51562 7.20234 5.87859 7.19906 8.7832L7.14844 54.7207C7.1468 56.1304 7.69406 57.456 8.6891 58.4534C9.68438 59.4507 11.0079 60 12.416 60H47.5332C50.4346 60 52.7977 57.637 52.8008 54.7324L52.8516 8.79492C52.8532 7.38527 52.3059 6.05965 51.3108 5.06227ZM30.597 21.0938H43.0719C44.0416 21.0938 44.8277 21.8808 44.8277 22.8516C44.8277 23.8223 44.0416 24.6094 43.0719 24.6094H30.597C29.6272 24.6094 28.8411 23.8223 28.8411 22.8516C28.8411 21.8808 29.6272 21.0938 30.597 21.0938ZM30.597 32.8125H43.0719C44.0416 32.8125 44.8277 33.5995 44.8277 34.5703C44.8277 35.5411 44.0416 36.3281 43.0719 36.3281H30.597C29.6272 36.3281 28.8411 35.5411 28.8411 34.5703C28.8411 33.5995 29.6272 32.8125 30.597 32.8125ZM30.597 44.5312H43.1221C44.0918 44.5312 44.8779 45.3183 44.8779 46.2891C44.8779 47.2598 44.0918 48.0469 43.1221 48.0469H30.597C29.6272 48.0469 28.8411 47.2598 28.8411 46.2891C28.8411 45.3183 29.6272 44.5312 30.597 44.5312ZM15.6364 21.1631C16.3222 20.4766 17.4339 20.4766 18.1196 21.1631L19.0744 22.119L23.1237 18.0653C23.8095 17.3789 24.9211 17.3787 25.6068 18.0653C26.2924 18.7516 26.2924 19.8647 25.6068 20.5512L20.3159 25.8478C20.1529 26.011 19.9594 26.1405 19.7463 26.2288C19.5333 26.3172 19.3049 26.3627 19.0743 26.3627C18.8436 26.3627 18.6152 26.3172 18.4022 26.2288C18.1892 26.1405 17.9956 26.011 17.8327 25.8478L15.6363 23.6489C14.9507 22.9625 14.9507 21.8495 15.6364 21.1631ZM15.6364 33.7768C16.3222 33.0904 17.4339 33.0904 18.1196 33.7768L19.0744 34.7326L23.1237 30.6789C23.8093 29.9925 24.9211 29.9925 25.6068 30.6789C26.2924 31.3652 26.2924 32.4783 25.6068 33.1648L20.3159 38.4615C20.1529 38.6247 19.9593 38.7542 19.7463 38.8425C19.5333 38.9308 19.3049 38.9763 19.0743 38.9763C18.8436 38.9763 18.6153 38.9308 18.4022 38.8425C18.1892 38.7542 17.9956 38.6247 17.8327 38.4615L15.6363 36.2626C14.9507 35.5763 14.9507 34.4633 15.6364 33.7768ZM15.6364 45.4956C16.3222 44.8091 17.4339 44.8091 18.1196 45.4956L19.0744 46.4514L23.1237 42.3976C23.8093 41.7113 24.9211 41.7113 25.6068 42.3976C26.2924 43.084 26.2924 44.197 25.6068 44.8835L20.3159 50.1803C20.1529 50.3435 19.9593 50.4729 19.7463 50.5612C19.5333 50.6496 19.3049 50.695 19.0743 50.695C18.8436 50.695 18.6153 50.6496 18.4022 50.5612C18.1892 50.4729 17.9956 50.3435 17.8327 50.1803L15.6363 47.9814C14.9507 47.295 14.9507 46.1821 15.6364 45.4956Z" fill="#C9C9C9"/>
<path d="M18.3236 5.85938C18.3236 6.5066 18.8476 7.03125 19.4941 7.03125H40.5645C41.211 7.03125 41.735 6.5066 41.735 5.85938V1.17188C41.735 0.524648 41.211 0 40.5645 0H19.4941C18.8476 0 18.3236 0.524648 18.3236 1.17188V5.85938Z" fill="#C9C9C9"/>
</svg>
