<svg width="25" height="24" viewBox="0 0 25 24" fill="none" xmlns="http://www.w3.org/2000/svg">
<path d="M17.728 9.78591H12.8443C12.4629 9.78591 12.1467 9.46963 12.1467 9.08823C12.1467 8.70684 12.4629 8.39056 12.8443 8.39056H17.728C17.9131 8.39056 18.0905 8.46406 18.2214 8.5949C18.3522 8.72574 18.4257 8.9032 18.4257 9.08823C18.4257 9.27327 18.3522 9.45072 18.2214 9.58156C18.0905 9.7124 17.9131 9.78591 17.728 9.78591ZM7.9606 10.4929C7.78386 10.4929 7.60712 10.4278 7.46758 10.2882L6.76991 9.59056C6.50014 9.32079 6.50014 8.87428 6.76991 8.60451C7.03967 8.33474 7.48619 8.33474 7.75595 8.60451L7.9606 8.80916L9.5606 7.20916C9.83037 6.93939 10.2769 6.93939 10.5467 7.20916C10.8164 7.47893 10.8164 7.92544 10.5467 8.19521L8.45363 10.2882C8.32291 10.4191 8.14558 10.4927 7.9606 10.4929ZM17.728 16.2975H12.8443C12.4629 16.2975 12.1467 15.9813 12.1467 15.5999C12.1467 15.2185 12.4629 14.9022 12.8443 14.9022H17.728C17.9131 14.9022 18.0905 14.9757 18.2214 15.1065C18.3522 15.2374 18.4257 15.4148 18.4257 15.5999C18.4257 15.7849 18.3522 15.9623 18.2214 16.0932C18.0905 16.224 17.9131 16.2975 17.728 16.2975ZM7.9606 17.0045C7.78386 17.0045 7.60712 16.9394 7.46758 16.7999L6.76991 16.1022C6.50014 15.8324 6.50014 15.3859 6.76991 15.1161C7.03967 14.8464 7.48619 14.8464 7.75595 15.1161L7.9606 15.3208L9.5606 13.7208C9.83037 13.451 10.2769 13.451 10.5467 13.7208C10.8164 13.9906 10.8164 14.4371 10.5467 14.7068L8.45363 16.7999C8.32291 16.9307 8.14558 17.0043 7.9606 17.0045Z" fill="#939393"/>
<path d="M15.2907 22H9.7093C4.65814 22 2.5 19.8419 2.5 14.7907V9.2093C2.5 4.15814 4.65814 2 9.7093 2H15.2907C20.3419 2 22.5 4.15814 22.5 9.2093V14.7907C22.5 19.8419 20.3419 22 15.2907 22ZM9.7093 3.39535C5.42093 3.39535 3.89535 4.92093 3.89535 9.2093V14.7907C3.89535 19.0791 5.42093 20.6047 9.7093 20.6047H15.2907C19.5791 20.6047 21.1047 19.0791 21.1047 14.7907V9.2093C21.1047 4.92093 19.5791 3.39535 15.2907 3.39535H9.7093Z" fill="#939393"/>
</svg>
